# xmcd
#
# Track frame offsets:
#	150
#	17814
#	30965
#	47091
#	63424
#	80886
#	95369
#	112178
#	130749
#	145375
#
# Disc length: 2119 seconds
#
# Revision: 1
# Processed by: cddbd v1.5.2PL0 Copyright (c) Steve Scherf et al.
# Submitted via: audiograbber 1.83.01
#
DISCID=8708450a
DTITLE=Hank Nero - Hengitä Vaan
DYEAR=2011
DGENRE=Blues
TTITLE0=El Tule Ketään Toista
TTITLE1=ElämänTie
TTITLE2=Viela Joskus Ymmärrät
TTITLE3=Kyyneleet
TTITLE4=Vahva Puu
TTITLE5=Elän Tien Päällä
TTITLE6=Hengitä Vaan
TTITLE7=Kesä Viimeinen
TTITLE8=Vyö Täynnä Panoksia
TTITLE9=Elena
EXTD=
EXTT0=
EXTT1=
EXTT2=
EXTT3=
EXTT4=
EXTT5=
EXTT6=
EXTT7=
EXTT8=
EXTT9=
PLAYORDER=
